{"accessors" : [{"bufferView" : 0, "byteOffset" : 0, "componentType" : 5123, "count" : 19692, "type" : "SCALAR", "max" : [17624], "min" : [0]}, {"bufferView" : 1, "byteOffset" : 0, "componentType" : 5126, "count" : 17625, "type" : "VEC3", "max" : [0.7127895355224609, 0.019999999552965164, 0.05822981521487236], "min" : [0.06385869532823563, -0.019999999552965164, -0.6063826680183411], "name" : "POSITION"}, {"bufferView" : 1, "byteOffset" : 12, "componentType" : 5126, "count" : 17625, "type" : "VEC3", "max" : [1.0000039339065552, 1.0000044107437134, 1.0000042915344238], "min" : [-1.000002384185791, -1.0000044107437134, -1.0000042915344238], "name" : "NORMAL"}, {"bufferView" : 1, "byteOffset" : 24, "componentType" : 5126, "count" : 17625, "type" : "VEC2", "max" : [1, 1], "min" : [0, 0], "name" : "TEXCOORD_0"}], "asset" : {"generator" : "Aspose.3D 22.7", "version" : "2.0"}, "buffers" : [{"uri" : "data:application/octet-stream;base64,", "byteLength" : 669536}], "bufferViews" : [{"buffer" : 0, "byteOffset" : 0, "byteLength" : 39384, "target" : 34963}, {"buffer" : 0, "byteOffset" : 39388, "byteLength" : 630144, "byteStride" : 32, "target" : 34962}], "meshes" : [{"primitives" : [{"attributes" : {"POSITION" : 1, "NORMAL" : 2, "TEXCOORD_0" : 3}, "indices" : 0, "mode" : 4}]}], "nodes" : [{"mesh" : 0, "name" : "U662F"}], "scene" : 0, "scenes" : [{"nodes" : [0]}]}