{"accessors" : [{"bufferView" : 0, "byteOffset" : 0, "componentType" : 5123, "count" : 11316, "type" : "SCALAR", "max" : [10145], "min" : [0]}, {"bufferView" : 1, "byteOffset" : 0, "componentType" : 5126, "count" : 10146, "type" : "VEC3", "max" : [0.7384295463562012, 0.019999999552965164, 0.00019409939704928547], "min" : [0.03726708143949509, -0.019999999552965164, -0.5484466552734375], "name" : "POSITION"}, {"bufferView" : 1, "byteOffset" : 12, "componentType" : 5126, "count" : 10146, "type" : "VEC3", "max" : [1.0000044107437134, 1.0000044107437134, 1.0000040531158447], "min" : [-1.0000042915344238, -1.0000044107437134, -1.0000044107437134], "name" : "NORMAL"}, {"bufferView" : 1, "byteOffset" : 24, "componentType" : 5126, "count" : 10146, "type" : "VEC2", "max" : [1, 1], "min" : [0, 0], "name" : "TEXCOORD_0"}], "asset" : {"generator" : "Aspose.3D 22.7", "version" : "2.0"}, "buffers" : [{"uri" : "data:application/octet-stream;base64,", "byteLength" : 384752}], "bufferViews" : [{"buffer" : 0, "byteOffset" : 0, "byteLength" : 22632, "target" : 34963}, {"buffer" : 0, "byteOffset" : 22636, "byteLength" : 362112, "byteStride" : 32, "target" : 34962}], "meshes" : [{"primitives" : [{"attributes" : {"POSITION" : 1, "NORMAL" : 2, "TEXCOORD_0" : 3}, "indices" : 0, "mode" : 4}]}], "nodes" : [{"mesh" : 0, "name" : "U738B"}], "scene" : 0, "scenes" : [{"nodes" : [0]}]}