{"accessors" : [{"bufferView" : 0, "byteOffset" : 0, "componentType" : 5123, "count" : 25476, "type" : "SCALAR", "max" : [22807], "min" : [0]}, {"bufferView" : 1, "byteOffset" : 0, "componentType" : 5126, "count" : 22808, "type" : "VEC3", "max" : [0.7044729590415955, 0.019999999552965164, 0.08064829558134079], "min" : [0.07129917293787003, -0.019999999552965164, -0.6296584010124207], "name" : "POSITION"}, {"bufferView" : 1, "byteOffset" : 12, "componentType" : 5126, "count" : 22808, "type" : "VEC3", "max" : [1.0000039339065552, 1.0000044107437134, 1.0000032186508179], "min" : [-1.0000040531158447, -1.0000044107437134, -1.0000038146972656], "name" : "NORMAL"}, {"bufferView" : 1, "byteOffset" : 24, "componentType" : 5126, "count" : 22808, "type" : "VEC2", "max" : [1, 1], "min" : [0, 0], "name" : "TEXCOORD_0"}], "asset" : {"generator" : "Aspose.3D 22.7", "version" : "2.0"}, "buffers" : [{"uri" : "data:application/octet-stream;base64,", "byteLength" : 866192}], "bufferViews" : [{"buffer" : 0, "byteOffset" : 0, "byteLength" : 50952, "target" : 34963}, {"buffer" : 0, "byteOffset" : 50956, "byteLength" : 815232, "byteStride" : 32, "target" : 34962}], "meshes" : [{"primitives" : [{"attributes" : {"POSITION" : 1, "NORMAL" : 2, "TEXCOORD_0" : 3}, "indices" : 0, "mode" : 4}]}], "nodes" : [{"mesh" : 0, "name" : "U6211"}], "scene" : 0, "scenes" : [{"nodes" : [0]}]}